Coordinates
version=1
nRows=29
nColumns=24
inDegrees=yes

Units are S.I. units (second, meters, Newtons, ...)
Angles are in degrees.

endheader
time	pelvis_tilt	pelvis_list	pelvis_rotation	pelvis_tx	pelvis_ty	pelvis_tz	hip_flexion_r	hip_adduction_r	hip_rotation_r	knee_angle_r	ankle_angle_r	subtalar_angle_r	mtp_angle_r	hip_flexion_l	hip_adduction_l	hip_rotation_l	knee_angle_l	ankle_angle_l	subtalar_angle_l	mtp_angle_l	lumbar_extension	lumbar_bending	lumbar_rotation
      1.37100000	     -0.10663042	      9.85555939	     -3.98175677	      0.39973572	      1.00294467	      0.28848278	     17.63961405	    -13.35741912	     -0.82339324	    -75.88159888	    -10.24147059	    -16.32732761	      2.54281525	      8.99574181	     15.19204865	      4.48582714	    -12.00251083	      2.45677385	    -18.90771542	     -2.79326522	    -12.41242846	     -5.40171157	     -0.65905953
      1.37516667	     -0.06996985	      9.62074420	     -3.95863339	      0.40456311	      1.00415668	      0.28813373	     18.17492569	    -13.03237359	     -0.84217506	    -75.72610074	     -9.76679439	    -16.36846953	      2.43047388	      8.31725923	     14.98031455	      4.71105270	    -11.40033458	      2.42085713	    -18.94500900	     -2.79567807	    -12.44627402	     -5.04301156	     -1.04063881
      1.37933333	     -0.11256396	      9.38438209	     -3.93644035	      0.40936258	      1.00520973	      0.28780934	     18.79342001	    -12.68436635	     -0.84320722	    -75.53513705	     -9.26634526	    -16.47199282	      2.37018539	      7.75832366	     14.75055614	      4.83539385	    -10.85646082	      2.37046455	    -18.88246826	     -2.79816261	    -12.40958625	     -4.68905618	     -1.20528296
      1.38350000	     -0.10834886	      9.14106002	     -3.89973976	      0.41418363	      1.00629454	      0.28746488	     19.33252988	    -12.34121656	     -0.87265317	    -75.27566265	     -8.80786459	    -16.49950430	      2.24553243	      7.12613644	     14.52120573	      5.03643335	    -10.27631261	      2.35022345	    -18.88963561	     -2.80104017	    -12.40239506	     -4.32232985	     -1.57589760
      1.38766667	     -0.12909034	      8.91022749	     -3.87141906	      0.41897585	      1.00728791	      0.28715138	     19.89612973	    -11.99899862	     -0.88368671	    -74.97873314	     -8.30740179	    -16.57459940	      2.18923348	      6.55101312	     14.29302176	      5.13717506	     -9.74084278	      2.29889882	    -18.79537202	     -2.80358160	    -12.39551048	     -3.98459788	     -1.72661899
      1.39183333	     -0.11849351	      8.66869479	     -3.82589368	      0.42379206	      1.00829151	      0.28681560	     20.39680731	    -11.65865916	     -0.92770781	    -74.61642359	     -7.84928081	    -16.56991733	      2.06218010	      5.91987234	     14.06026163	      5.31965917	     -9.17249131	      2.28826820	    -18.77951593	     -2.80695032	    -12.39719036	     -3.61885063	     -2.09960354
      1.39600000	     -0.12652729	      8.42393760	     -3.79081161	      0.42856570	      1.00923079	      0.28651693	     20.91057967	    -11.29773539	     -0.94980808	    -74.20791755	     -7.35333510	    -16.61228390	      1.99698344	      5.33808304	     13.81402558	      5.41303341	     -8.64765734	      2.24082750	    -18.67321427	     -2.81008728	    -12.41134230	     -3.26917935	     -2.26407652
      1.40016667	     -0.11443547	      8.18384923	     -3.74278865	      0.43336941	      1.01013462	      0.28620403	     21.38054317	    -10.95474684	     -0.99438935	    -73.74698917	     -6.87536252	    -16.58656535	      1.89303415	      4.72314964	     13.57513642	      5.55057129	     -8.10738044	      2.23952175	    -18.59930645	     -2.81301990	    -12.42822286	     -2.91287164	     -2.57642860
      1.40433333	     -0.13125425	      7.96727541	     -3.69636845	      0.43819129	      1.01093979	      0.28591127	     21.87332120	    -10.63397212	     -1.03516286	    -73.24536404	     -6.36270177	    -16.62037418	      1.85086047	      4.15902639	     13.35296441	      5.60291952	     -7.59495136	      2.20859043	    -18.47473724	     -2.81510215	    -12.38793726	     -2.61037393	     -2.71489306
      1.40850000	     -0.10177506	      7.74473103	     -3.64321991	      0.44297557	      1.01174257	      0.28559823	     22.30019652	    -10.31374185	     -1.07604264	    -72.69501538	     -5.86146127	    -16.51338927	      1.73751123	      3.53535984	     13.13108022	      5.74609465	     -7.06614852	      2.22359797	    -18.38943985	     -2.81792352	    -12.44257366	     -2.26332540	     -3.09938470
      1.41266667	     -0.10200862	      7.52303040	     -3.59129737	      0.44777123	      1.01247707	      0.28532625	     22.74132293	     -9.98346784	     -1.11267120	    -72.08957004	     -5.34282166	    -16.47520111	      1.66035633	      2.96469245	     12.90083799	      5.81600974	     -6.57379568	      2.20333671	    -18.26408167	     -2.82078798	    -12.45522255	     -1.96026016	     -3.30453906
      1.41683333	     -0.12605880	      7.31367325	     -3.53481131	      0.45258020	      1.01309608	      0.28503159	     23.19957172	     -9.67590861	     -1.16132459	    -71.44922851	     -4.80870189	    -16.44094950	      1.61460583	      2.42945919	     12.68263945	      5.86311776	     -6.09728371	      2.19325591	    -18.12632842	     -2.82226127	    -12.42150656	     -1.64538319	     -3.46821358
      1.42100000	     -0.07262041	      7.12620528	     -3.47491761	      0.45738244	      1.01376423	      0.28474805	     23.55768955	     -9.40087045	     -1.20569163	    -70.76021164	     -4.27161643	    -16.28907441	      1.51046785	      1.79990366	     12.49130147	      5.95634564	     -5.59637405	      2.22825327	    -17.99233346	     -2.82342546	    -12.48726251	     -1.35375595	     -3.83184845
      1.42516667	     -0.07978505	      6.91848680	     -3.40865892	      0.46217944	      1.01431563	      0.28449565	     23.95899690	     -9.08920525	     -1.24812552	    -70.01251756	     -3.73458925	    -16.22072761	      1.46169044	      1.26399434	     12.26969269	      5.99752573	     -5.15161558	      2.21822385	    -17.84858169	     -2.82451221	    -12.48623662	     -1.07744027	     -3.99388681
      1.42933333	     -0.03326901	      6.74562763	     -3.34935467	      0.46699341	      1.01484279	      0.28421536	     24.30003980	     -8.83535423	     -1.29115426	    -69.23930974	     -3.19514906	    -16.05785162	      1.37735850	      0.65819606	     12.09017391	      6.06694707	     -4.67775352	      2.26929644	    -17.69347158	     -2.82368724	    -12.54286755	     -0.79281722	     -4.29766412
      1.43350000	     -0.04675637	      6.56323264	     -3.27435131	      0.47179573	      1.01526101	      0.28397686	     24.68133279	     -8.55615460	     -1.33323575	    -68.40607953	     -2.65263064	    -15.95936027	      1.33245182	      0.14512155	     11.89179581	      6.10300060	     -4.25966445	      2.27190940	    -17.54366663	     -2.82368461	    -12.53433825	     -0.54533209	     -4.46707920
      1.43766667	      0.01088498	      6.40254860	     -3.20497774	      0.47660782	      1.01569183	      0.28370312	     24.97686968	     -8.32225887	     -1.37998668	    -67.53878239	     -2.12193253	    -15.77135198	      1.25364949	     -0.45730366	     11.72246112	      6.16922049	     -3.81221112	      2.33871006	    -17.37449730	     -2.82124843	    -12.60567071	     -0.28282667	     -4.77776276
      1.44183333	     -0.00950781	      6.25139677	     -3.12522883	      0.48140593	      1.01596402	      0.28347203	     25.34214955	     -8.08128965	     -1.41260426	    -66.62571869	     -1.59418583	    -15.65505336	      1.21556118	     -0.94533915	     11.55511326	      6.20807003	     -3.42312784	      2.35485128	    -17.22686853	     -2.82033071	    -12.58752545	     -0.07051592	     -4.93929153
      1.44600000	      0.05049609	      6.10415876	     -3.04473119	      0.48621968	      1.01629249	      0.28321591	     25.59998518	     -7.86702510	     -1.46162123	    -65.66443462	     -1.07976245	    -15.45644146	      1.13709206	     -1.53522913	     11.39544130	      6.28082258	     -3.00350744	      2.42916044	    -17.05393819	     -2.81705382	    -12.66611206	      0.17156996	     -5.26370750
      1.45016667	      0.05540632	      5.97534855	     -2.95885944	      0.49103237	      1.01648025	      0.28297974	     25.90774816	     -7.66403624	     -1.49731755	    -64.66656118	     -0.58798213	    -15.28392465	      1.07089737	     -2.04646121	     11.25130057	      6.34005569	     -2.62055158	      2.48539296	    -16.90484735	     -2.81463252	    -12.67462195	      0.37579579	     -5.49535519
      1.45433333	      0.05317743	      5.83864743	     -2.86708216	      0.49583769	      1.01661704	      0.28275583	     26.19919880	     -7.45302618	     -1.53694892	    -63.61154975	     -0.11632409	    -15.14175388	      1.03463560	     -2.53646227	     11.09583077	      6.38961904	     -2.26352549	      2.52966652	    -16.76498225	     -2.81272340	    -12.68153079	      0.57532407	     -5.66796582
      1.45850000	      0.11045590	      5.72537249	     -2.77998060	      0.50066477	      1.01676425	      0.28252829	     26.41486618	     -7.28061244	     -1.57734628	    -62.52368864	      0.33327752	    -14.96106357	      0.97680580	     -3.10559138	     10.96702915	      6.47348950	     -1.87587869	      2.61143137	    -16.60699282	     -2.80952021	    -12.75620083	      0.76814485	     -5.95759338
      1.46266667	      0.09815062	      5.60650117	     -2.68072961	      0.50548391	      1.01677826	      0.28231259	     26.68264193	     -7.09421816	     -1.61426533	    -61.38027310	      0.76222096	    -14.82663113	      0.95071271	     -3.57281414	     10.82765089	      6.54057157	     -1.54342357	      2.66415334	    -16.47648708	     -2.80789092	    -12.74921903	      0.94892282	     -6.11524663
      1.46683333	      0.11108112	      5.51263761	     -2.58203064	      0.51030312	      1.01676282	      0.28210410	     26.91162784	     -6.94245319	     -1.64884049	    -60.20127766	      1.16156172	    -14.66451447	      0.92309195	     -4.06983624	     10.71413229	      6.62491388	     -1.20180104	      2.73737779	    -16.34474978	     -2.80606822	    -12.76927273	      1.10762219	     -6.34223130
      1.47100000	      0.15024413	      5.43180665	     -2.48925378	      0.51513512	      1.01670834	      0.28189913	     27.10025564	     -6.81214855	     -1.68444737	    -58.98805379	      1.52728301	    -14.50578735	      0.88144741	     -4.60480732	     10.61438256	      6.72301413	     -0.83862641	      2.82650940	    -16.22218104	     -2.80498860	    -12.82712171	      1.25943769	     -6.63886836
      1.47516667	      0.14227205	      5.35206029	     -2.38336257	      0.51995706	      1.01656115	      0.28170220	     27.31483025	     -6.67825043	     -1.71527326	    -57.71910709	      1.87852819	    -14.37739771	      0.85799469	     -5.06277128	     10.51270218	      6.81472862	     -0.52973009	      2.88934023	    -16.11385689	     -2.80483132	    -12.82232020	      1.39356832	     -6.81634707
      1.47933333	      0.11949906	      5.29185624	     -2.28122029	      0.52479702	      1.01631461	      0.28151520	     27.53661873	     -6.56971201	     -1.74525105	    -56.42367426	      2.20732222	    -14.25088111	      0.84065747	     -5.51083052	     10.43005145	      6.91229864	     -0.20769710	      2.95965605	    -16.00992003	     -2.80479066	    -12.81721630	      1.50949254	     -7.00498348
      1.48350000	      0.13184515	      5.22277470	     -2.17896898	      0.52965400	      1.01609687	      0.28132782	     27.69044675	     -6.45924758	     -1.78664436	    -55.06696823	      2.49003253	    -14.12946855	      0.82281237	     -5.99968324	     10.33756675	      7.01329724	      0.11873671	      3.03851133	    -15.91252544	     -2.80536570	    -12.84333497	      1.63443719	     -7.22450880
      1.48766667	      0.15005744	      5.19660102	     -2.08921563	      0.53449498	      1.01578717	      0.28116086	     27.83872144	     -6.39061438	     -1.79844073	    -53.69280212	      2.73603645	    -14.01614874	      0.79197354	     -6.49392936	     10.29174352	      7.14004388	      0.44759091	      3.11511324	    -15.84267362	     -2.80978414	    -12.86468643	      1.72263768	     -7.52185552
